<?xml version="1.0" encoding="UTF-8" standalone="no"?><svg xmlns="http://www.w3.org/2000/svg" xmlns:xlink="http://www.w3.org/1999/xlink" contentScriptType="application/ecmascript" contentStyleType="text/css" height="916px" preserveAspectRatio="none" style="width:919px;height:916px;" version="1.1" viewBox="0 0 919 916" width="919px" zoomAndPan="magnify"><defs><filter height="300%" id="f1ov5m4xcrf8e4" width="300%" x="-1" y="-1"><feGaussianBlur result="blurOut" stdDeviation="2.0"/><feColorMatrix in="blurOut" result="blurOut2" type="matrix" values="0 0 0 0 0 0 0 0 0 0 0 0 0 0 0 0 0 0 .4 0"/><feOffset dx="4.0" dy="4.0" in="blurOut2" result="blurOut3"/><feBlend in="SourceGraphic" in2="blurOut3" mode="normal"/></filter></defs><g><text fill="#000000" font-family="sans-serif" font-size="18" lengthAdjust="spacingAndGlyphs" textLength="124" x="520.25" y="26.708">DEV STUFF! 2</text><line style="stroke: #A80036; stroke-width: 1.5;" x1="299.5" x2="299.5" y1="147.5156" y2="437.9766"/><polygon fill="#A80036" points="295.5,157.5156,299.5,147.5156,303.5,157.5156,299.5,153.5156" style="stroke: #A80036; stroke-width: 1.0;"/><polygon fill="#A80036" points="295.5,427.9766,299.5,437.9766,303.5,427.9766,299.5,431.9766" style="stroke: #A80036; stroke-width: 1.0;"/><text fill="#000000" font-family="sans-serif" font-size="13" lengthAdjust="spacingAndGlyphs" textLength="64" x="303.5" y="297.2466">4-8 weeks</text><line style="stroke: #A80036; stroke-width: 1.0;" x1="185" x2="185" y1="73.25" y2="531.375"/><line style="stroke: #A80036; stroke-width: 1.0; stroke-dasharray: 1.0,4.0;" x1="185" x2="185" y1="531.375" y2="572.1797"/><line style="stroke: #A80036; stroke-width: 1.0;" x1="185" x2="185" y1="572.1797" y2="875.5078"/><line style="stroke: #A80036; stroke-width: 1.0;" x1="414" x2="414" y1="73.25" y2="531.375"/><line style="stroke: #A80036; stroke-width: 1.0; stroke-dasharray: 1.0,4.0;" x1="414" x2="414" y1="531.375" y2="572.1797"/><line style="stroke: #A80036; stroke-width: 1.0;" x1="414" x2="414" y1="572.1797" y2="875.5078"/><rect fill="#9ACD32" filter="url(#f1ov5m4xcrf8e4)" height="294.4609" style="stroke: #A80036; stroke-width: 1.0;" width="10" x="409" y="145.5156"/><line style="stroke: #A80036; stroke-width: 1.0;" x1="527.5" x2="527.5" y1="73.25" y2="531.375"/><line style="stroke: #A80036; stroke-width: 1.0; stroke-dasharray: 1.0,4.0;" x1="527.5" x2="527.5" y1="531.375" y2="572.1797"/><line style="stroke: #A80036; stroke-width: 1.0;" x1="527.5" x2="527.5" y1="572.1797" y2="875.5078"/><line style="stroke: #A80036; stroke-width: 1.0;" x1="769.5" x2="769.5" y1="73.25" y2="531.375"/><line style="stroke: #A80036; stroke-width: 1.0; stroke-dasharray: 1.0,4.0;" x1="769.5" x2="769.5" y1="531.375" y2="572.1797"/><line style="stroke: #A80036; stroke-width: 1.0;" x1="769.5" x2="769.5" y1="572.1797" y2="875.5078"/><rect fill="#E9967A" filter="url(#f1ov5m4xcrf8e4)" height="239.0625" style="stroke: #A80036; stroke-width: 1.0;" width="10" x="764.5" y="636.4453"/><rect fill="#ADD8E6" filter="url(#f1ov5m4xcrf8e4)" height="30.2969" style="stroke: #A80036; stroke-width: 1.5;" width="106" x="130" y="37.9531"/><text fill="#000000" font-family="sans-serif" font-size="14" lengthAdjust="spacingAndGlyphs" textLength="92" x="137" y="57.9482">Dev 1 branch</text><rect fill="#9ACD32" filter="url(#f1ov5m4xcrf8e4)" height="30.2969" style="stroke: #A80036; stroke-width: 1.5;" width="86" x="369" y="37.9531"/><text fill="#000000" font-family="sans-serif" font-size="14" lengthAdjust="spacingAndGlyphs" textLength="72" x="376" y="57.9482">RC branch</text><rect fill="#99FF99" filter="url(#f1ov5m4xcrf8e4)" height="30.2969" style="stroke: #A80036; stroke-width: 1.5;" width="113" x="469" y="37.9531"/><text fill="#000000" font-family="sans-serif" font-size="14" lengthAdjust="spacingAndGlyphs" textLength="99" x="476" y="57.9482">Master branch</text><rect fill="#E9967A" filter="url(#f1ov5m4xcrf8e4)" height="30.2969" style="stroke: #A80036; stroke-width: 1.5;" width="104" x="715.5" y="37.9531"/><text fill="#000000" font-family="sans-serif" font-size="14" lengthAdjust="spacingAndGlyphs" textLength="90" x="722.5" y="57.9482">Hotfix branch</text><rect fill="#ADD8E6" filter="url(#f1ov5m4xcrf8e4)" height="30.2969" style="stroke: #A80036; stroke-width: 1.5;" width="106" x="130" y="875.5078"/><text fill="#000000" font-family="sans-serif" font-size="14" lengthAdjust="spacingAndGlyphs" textLength="92" x="137" y="895.5029">Dev 1 branch</text><rect fill="#9ACD32" filter="url(#f1ov5m4xcrf8e4)" height="30.2969" style="stroke: #A80036; stroke-width: 1.5;" width="86" x="369" y="875.5078"/><text fill="#000000" font-family="sans-serif" font-size="14" lengthAdjust="spacingAndGlyphs" textLength="72" x="376" y="895.5029">RC branch</text><rect fill="#99FF99" filter="url(#f1ov5m4xcrf8e4)" height="30.2969" style="stroke: #A80036; stroke-width: 1.5;" width="113" x="469" y="875.5078"/><text fill="#000000" font-family="sans-serif" font-size="14" lengthAdjust="spacingAndGlyphs" textLength="99" x="476" y="895.5029">Master branch</text><rect fill="#E9967A" filter="url(#f1ov5m4xcrf8e4)" height="30.2969" style="stroke: #A80036; stroke-width: 1.5;" width="104" x="715.5" y="875.5078"/><text fill="#000000" font-family="sans-serif" font-size="14" lengthAdjust="spacingAndGlyphs" textLength="90" x="722.5" y="895.5029">Hotfix branch</text><rect fill="#EEEEEE" filter="url(#f1ov5m4xcrf8e4)" height="3" style="stroke: #EEEEEE; stroke-width: 1.0;" width="904.5" x="3" y="101.8164"/><line style="stroke: #000000; stroke-width: 1.0;" x1="3" x2="907.5" y1="101.8164" y2="101.8164"/><line style="stroke: #000000; stroke-width: 1.0;" x1="3" x2="907.5" y1="104.8164" y2="104.8164"/><rect fill="#EEEEEE" filter="url(#f1ov5m4xcrf8e4)" height="23.1328" style="stroke: #000000; stroke-width: 2.0;" width="77" x="416.75" y="91.25"/><text fill="#000000" font-family="sans-serif" font-size="13" font-weight="bold" lengthAdjust="spacingAndGlyphs" textLength="58" x="422.75" y="107.3169">Release</text><polygon fill="#A80036" points="397,141.5156,407,145.5156,397,149.5156,401,145.5156" style="stroke: #A80036; stroke-width: 1.0;"/><line style="stroke: #A80036; stroke-width: 1.0;" x1="185" x2="403" y1="145.5156" y2="145.5156"/><text fill="#000000" font-family="sans-serif" font-size="13" lengthAdjust="spacingAndGlyphs" textLength="176" x="192" y="140.4497">Create branch release/x.y.0</text><path d="M90,158.5156 L90,183.5156 L176,183.5156 L176,168.5156 L166,158.5156 L90,158.5156 " fill="#FBFB77" filter="url(#f1ov5m4xcrf8e4)" style="stroke: #A80036; stroke-width: 1.0;"/><path d="M166,158.5156 L166,168.5156 L176,168.5156 L166,158.5156 " fill="#FBFB77" style="stroke: #A80036; stroke-width: 1.0;"/><text fill="#000000" font-family="sans-serif" font-size="13" lengthAdjust="spacingAndGlyphs" textLength="65" x="96" y="175.5825">Evolutions</text><polygon fill="#A80036" points="397,209.7813,407,213.7813,397,217.7813,401,213.7813" style="stroke: #A80036; stroke-width: 1.0;"/><line style="stroke: #A80036; stroke-width: 1.0;" x1="185" x2="403" y1="213.7813" y2="213.7813"/><text fill="#000000" font-family="sans-serif" font-size="13" lengthAdjust="spacingAndGlyphs" textLength="133" x="192" y="208.7153">Cherry-pick bug fixes</text><polygon fill="#A80036" points="397,238.9141,407,242.9141,397,246.9141,401,242.9141" style="stroke: #A80036; stroke-width: 1.0;"/><line style="stroke: #A80036; stroke-width: 1.0;" x1="185" x2="403" y1="242.9141" y2="242.9141"/><text fill="#000000" font-family="sans-serif" font-size="13" lengthAdjust="spacingAndGlyphs" textLength="171" x="192" y="237.8481">Cherry-pick more bug fixes</text><path d="M424,255.9141 L424,310.9141 L646,310.9141 L646,265.9141 L636,255.9141 L424,255.9141 " fill="#FBFB77" filter="url(#f1ov5m4xcrf8e4)" style="stroke: #A80036; stroke-width: 1.0;"/><path d="M636,255.9141 L636,265.9141 L646,265.9141 L636,255.9141 " fill="#FBFB77" style="stroke: #A80036; stroke-width: 1.0;"/><text fill="#000000" font-family="sans-serif" font-size="13" lengthAdjust="spacingAndGlyphs" textLength="67" x="430" y="272.981">- Bug fixes</text><text fill="#000000" font-family="sans-serif" font-size="13" lengthAdjust="spacingAndGlyphs" textLength="190" x="430" y="288.1138">- Tag "x.y.0-rcn" on RC branch</text><text fill="#000000" font-family="sans-serif" font-size="13" lengthAdjust="spacingAndGlyphs" textLength="201" x="430" y="303.2466">- Push "x.y.0-rcn" to DockerHub</text><polygon fill="#A80036" points="515.5,337.4453,525.5,341.4453,515.5,345.4453,519.5,341.4453" style="stroke: #A80036; stroke-width: 1.0;"/><line style="stroke: #A80036; stroke-width: 1.0;" x1="419" x2="521.5" y1="341.4453" y2="341.4453"/><text fill="#000000" font-family="sans-serif" font-size="13" lengthAdjust="spacingAndGlyphs" textLength="40" x="426" y="336.3794">Merge</text><path d="M532.5,354.4453 L532.5,409.4453 L729.5,409.4453 L729.5,364.4453 L719.5,354.4453 L532.5,354.4453 " fill="#FBFB77" filter="url(#f1ov5m4xcrf8e4)" style="stroke: #A80036; stroke-width: 1.0;"/><path d="M719.5,354.4453 L719.5,364.4453 L729.5,364.4453 L719.5,354.4453 " fill="#FBFB77" style="stroke: #A80036; stroke-width: 1.0;"/><text fill="#000000" font-family="sans-serif" font-size="13" lengthAdjust="spacingAndGlyphs" textLength="93" x="538.5" y="371.5122">Official release</text><text fill="#000000" font-family="sans-serif" font-size="13" lengthAdjust="spacingAndGlyphs" textLength="76" x="538.5" y="386.645">- Tag "x.y.0"</text><text fill="#000000" font-family="sans-serif" font-size="13" lengthAdjust="spacingAndGlyphs" textLength="176" x="538.5" y="401.7778">- Push "x.y.0" to DockerHub</text><polygon fill="#A80036" points="196,435.9766,186,439.9766,196,443.9766,192,439.9766" style="stroke: #A80036; stroke-width: 1.0;"/><line style="stroke: #A80036; stroke-width: 1.0; stroke-dasharray: 2.0,2.0;" x1="190" x2="408" y1="439.9766" y2="439.9766"/><text fill="#000000" font-family="sans-serif" font-size="13" lengthAdjust="spacingAndGlyphs" textLength="86" x="202" y="434.9106">Release done</text><polygon fill="#A80036" points="402,465.1094,412,469.1094,402,473.1094,406,469.1094" style="stroke: #A80036; stroke-width: 1.0;"/><line style="stroke: #A80036; stroke-width: 1.0;" x1="185" x2="408" y1="469.1094" y2="469.1094"/><text fill="#000000" font-family="sans-serif" font-size="13" lengthAdjust="spacingAndGlyphs" textLength="205" x="192" y="464.0435">Create branch release/x.(y+1).0</text><path d="M8,482.1094 L8,522.1094 L176,522.1094 L176,492.1094 L166,482.1094 L8,482.1094 " fill="#FBFB77" filter="url(#f1ov5m4xcrf8e4)" style="stroke: #A80036; stroke-width: 1.0;"/><path d="M166,482.1094 L166,492.1094 L176,492.1094 L166,482.1094 " fill="#FBFB77" style="stroke: #A80036; stroke-width: 1.0;"/><text fill="#000000" font-family="sans-serif" font-size="13" lengthAdjust="spacingAndGlyphs" textLength="126" x="14" y="499.1763">Increase x if case of</text><text fill="#000000" font-family="sans-serif" font-size="13" lengthAdjust="spacingAndGlyphs" textLength="147" x="14" y="514.3091">major breaking change</text><text fill="#000000" font-family="sans-serif" font-size="11" lengthAdjust="spacingAndGlyphs" textLength="0" x="479.25" y="555.5854"/><rect fill="#EEEEEE" filter="url(#f1ov5m4xcrf8e4)" height="3" style="stroke: #EEEEEE; stroke-width: 1.0;" width="904.5" x="3" y="592.7461"/><line style="stroke: #000000; stroke-width: 1.0;" x1="3" x2="907.5" y1="592.7461" y2="592.7461"/><line style="stroke: #000000; stroke-width: 1.0;" x1="3" x2="907.5" y1="595.7461" y2="595.7461"/><rect fill="#EEEEEE" filter="url(#f1ov5m4xcrf8e4)" height="23.1328" style="stroke: #000000; stroke-width: 2.0;" width="63" x="423.75" y="582.1797"/><text fill="#000000" font-family="sans-serif" font-size="13" font-weight="bold" lengthAdjust="spacingAndGlyphs" textLength="44" x="429.75" y="598.2466">Hotfix</text><polygon fill="#A80036" points="752.5,632.4453,762.5,636.4453,752.5,640.4453,756.5,636.4453" style="stroke: #A80036; stroke-width: 1.0;"/><line style="stroke: #A80036; stroke-width: 1.0;" x1="527.5" x2="758.5" y1="636.4453" y2="636.4453"/><text fill="#000000" font-family="sans-serif" font-size="13" lengthAdjust="spacingAndGlyphs" textLength="213" x="534.5" y="631.3794">Create short-lived fix branch x.y.z</text><path d="M259.5,620.3125 L259.5,645.3125 L518.5,645.3125 L518.5,630.3125 L508.5,620.3125 L259.5,620.3125 " fill="#FBFB77" filter="url(#f1ov5m4xcrf8e4)" style="stroke: #A80036; stroke-width: 1.0;"/><path d="M508.5,620.3125 L508.5,630.3125 L518.5,630.3125 L508.5,620.3125 " fill="#FBFB77" style="stroke: #A80036; stroke-width: 1.0;"/><text fill="#000000" font-family="sans-serif" font-size="13" lengthAdjust="spacingAndGlyphs" textLength="238" x="265.5" y="637.3794">z starts at 1. Increase for each hotfix.</text><path d="M779.5,659.4453 L779.5,699.4453 L898.5,699.4453 L898.5,669.4453 L888.5,659.4453 L779.5,659.4453 " fill="#FBFB77" filter="url(#f1ov5m4xcrf8e4)" style="stroke: #A80036; stroke-width: 1.0;"/><path d="M888.5,659.4453 L888.5,669.4453 L898.5,669.4453 L888.5,659.4453 " fill="#FBFB77" style="stroke: #A80036; stroke-width: 1.0;"/><text fill="#000000" font-family="sans-serif" font-size="13" lengthAdjust="spacingAndGlyphs" textLength="73" x="785.5" y="676.5122">Severe bug</text><text fill="#000000" font-family="sans-serif" font-size="13" lengthAdjust="spacingAndGlyphs" textLength="98" x="785.5" y="691.645">to be corrected</text><polygon fill="#A80036" points="752.5,725.8438,762.5,729.8438,752.5,733.8438,756.5,729.8438" style="stroke: #A80036; stroke-width: 1.0;"/><line style="stroke: #A80036; stroke-width: 1.0;" x1="185" x2="758.5" y1="729.8438" y2="729.8438"/><text fill="#000000" font-family="sans-serif" font-size="13" lengthAdjust="spacingAndGlyphs" textLength="124" x="192" y="724.7778">Merge hotfix per PR</text><polygon fill="#A80036" points="538.5,754.9766,528.5,758.9766,538.5,762.9766,534.5,758.9766" style="stroke: #A80036; stroke-width: 1.0;"/><line style="stroke: #A80036; stroke-width: 1.0; stroke-dasharray: 2.0,2.0;" x1="532.5" x2="763.5" y1="758.9766" y2="758.9766"/><text fill="#000000" font-family="sans-serif" font-size="13" lengthAdjust="spacingAndGlyphs" textLength="72" x="544.5" y="753.9106">Cherry-pick</text><path d="M532.5,771.9766 L532.5,826.9766 L728.5,826.9766 L728.5,781.9766 L718.5,771.9766 L532.5,771.9766 " fill="#FBFB77" filter="url(#f1ov5m4xcrf8e4)" style="stroke: #A80036; stroke-width: 1.0;"/><path d="M718.5,771.9766 L718.5,781.9766 L728.5,781.9766 L718.5,771.9766 " fill="#FBFB77" style="stroke: #A80036; stroke-width: 1.0;"/><text fill="#000000" font-family="sans-serif" font-size="13" lengthAdjust="spacingAndGlyphs" textLength="93" x="538.5" y="789.0435">Official release</text><text fill="#000000" font-family="sans-serif" font-size="13" lengthAdjust="spacingAndGlyphs" textLength="145" x="538.5" y="804.1763">- Tag "x.y.z" on master</text><text fill="#000000" font-family="sans-serif" font-size="13" lengthAdjust="spacingAndGlyphs" textLength="175" x="538.5" y="819.3091">- Push "x.y.z" to DockerHub</text><polygon fill="#A80036" points="425,853.5078,415,857.5078,425,861.5078,421,857.5078" style="stroke: #A80036; stroke-width: 1.0;"/><line style="stroke: #A80036; stroke-width: 1.0; stroke-dasharray: 2.0,2.0;" x1="419" x2="763.5" y1="857.5078" y2="857.5078"/><text fill="#000000" font-family="sans-serif" font-size="13" lengthAdjust="spacingAndGlyphs" textLength="72" x="431" y="852.4419">Cherry-pick</text><line style="stroke: #A80036; stroke-width: 1.5;" x1="299.5" x2="299.5" y1="147.5156" y2="437.9766"/><polygon fill="#A80036" points="295.5,157.5156,299.5,147.5156,303.5,157.5156,299.5,153.5156" style="stroke: #A80036; stroke-width: 1.0;"/><polygon fill="#A80036" points="295.5,427.9766,299.5,437.9766,303.5,427.9766,299.5,431.9766" style="stroke: #A80036; stroke-width: 1.0;"/><text fill="#000000" font-family="sans-serif" font-size="13" lengthAdjust="spacingAndGlyphs" textLength="64" x="303.5" y="297.2466">4-8 weeks</text><!--MD5=[2607679f136580dbeed7ce6f69693a7c]
@startuml
!pragma teoz true

== Release ==
participant "Dev 1 branch" as devbranch order 10 #LightBlue
participant "RC branch" as rcbranch order 20 #YellowGreen
participant "Master branch" as master order 30 #99FF99
participant "Hotfix branch" as hotbranch order 40 #DarkSalmon

{startrc} devbranch -> rcbranch ++ #YellowGreen: Create branch release/x.y.0

title DEV STUFF! 2

note left of devbranch
  Evolutions
end note


rcbranch <- devbranch: Cherry-pick bug fixes
rcbranch <- devbranch: Cherry-pick more bug fixes


note right of rcbranch
  - Bug fixes
  - Tag "x.y.0-rcn" on RC branch
  - Push "x.y.0-rcn" to DockerHub
end note


rcbranch -> master: Merge
note right of master
    Official release
    - Tag "x.y.0"
    - Push "x.y.0" to DockerHub
end note

{endrc} rcbranch - -> devbranch - -: Release done

devbranch -> rcbranch: Create branch release/x.(y+1).0
note left of devbranch
  Increase x if case of
  major breaking change
end note


... ...
{startrc} <-> {endrc}: 4-8 weeks

== Hotfix ==

master -> hotbranch ++ #DarkSalmon: Create short-lived fix branch x.y.z
note left
z starts at 1. Increase for each hotfix.
end note

note right of hotbranch
    Severe bug
    to be corrected
end note
hotbranch <- devbranch - -: Merge hotfix per PR
hotbranch - -> master: Cherry-pick
note right of master
    Official release
    - Tag "x.y.z" on master
    - Push "x.y.z" to DockerHub
end note
hotbranch - -> rcbranch: Cherry-pick

@enduml

PlantUML version 1.2020.02(Sun Mar 01 10:22:07 UTC 2020)
(GPL source distribution)
Java Runtime: OpenJDK Runtime Environment
JVM: OpenJDK 64-Bit Server VM
Java Version: 11.0.7+10-post-Ubuntu-3ubuntu1
Operating System: Linux
Default Encoding: ANSI_X3.4-1968
Language: en
Country: US
--></g></svg>